cover
 
http://img524.imageshack.us/img524/300/81a6057cee942a87aca89b9.jpg

Genre:Comedy | Thriller
Language:English
IMDb:http://www.imdb.com/title/tt1444252/
Source:DVD

General
Complete name :Terror.Trap.2010.DvDRip.XviD.Ac3.Feel-Free
Format : AVI
Format/Info : Audio Video Interleave
File size : 934 MiB
Duration : 1h 17mn
Overall bit rate : 1 687 Kbps
Video #0
Codec ID : XVID
Codec ID/Hint : XviD
Duration : 1h 17mn
Bit rate : 1 230 Kbps
Width : 720 pixels
Height : 384 pixels
Display aspect ratio : 1.875
Frame rate : 25.000 fps
Resolution : 24 bits
Colorimetry : 4:2:0
Scan type : Progressive
Bits/(Pixel*Frame) : 0.178
Stream size : 681 MiB (73%)
Writing library : XviD 1.2.1 (UTC 2008-12-04)
Audio #1
ID : 1
Format : AC-3
Format/Info : Audio Coding 3
Codec ID : 2000
Duration : 1h 17mn
Bit rate mode : Constant
Bit rate : 448 Kbps
Channel(s) : 6 channels
Channel positions : Front: L C R, Surround: L R, LFE
Sampling rate : 48.0 KHz
Stream size : 248 MiB (27%)
Alignment : Split accross interleaves
Interleave, duration : 40 ms (1.00 video frame)
Interleave, preload duration : 500 ms

Plot:
Driving to a weekend getaway, a car breakdown strands young couple Don and Nancy (David James Elliot and Heather Marsden) while passing through a small...

SCREENS
 
http://img576.imageshack.us/img576/8230/terrortrap2010dvdripxvi.jpg 
http://img80.imageshack.us/img80/8230/terrortrap2010dvdripxvi.jpg 
http://img153.imageshack.us/img153/8230/terrortrap2010dvdripxvi.jpg 
http://img522.imageshack.us/img522/8230/terrortrap2010dvdripxvi.jpg 
http://img576.imageshack.us/img576/2637/terrortrap2010dvdripxviq.jpg 
http://img543.imageshack.us/img543/8230/terrortrap2010dvdripxvi.jpg